Coordinates
version=1
nRows=35
nColumns=38
inDegrees=no

Units are S.I. units (second, meters, Newtons, ...)
If the header above contains a line with 'inDegrees', this indicates whether rotational values are in degrees (yes) or radians (no).

endheader
time	pelvis_tilt	pelvis_list	pelvis_rotation	pelvis_tx	pelvis_ty	pelvis_tz	hip_flexion_r	hip_adduction_r	hip_rotation_r	knee_angle_r	ankle_angle_r	subtalar_angle_r	mtp_angle_r	hip_flexion_l	hip_adduction_l	hip_rotation_l	knee_angle_l	ankle_angle_l	subtalar_angle_l	mtp_angle_l	lumbar_extension	lumbar_bending	lumbar_rotation	arm_flex_r	arm_add_r	arm_rot_r	elbow_flex_r	pro_sup_r	wrist_flex_r	wrist_dev_r	arm_flex_l	arm_add_l	arm_rot_l	elbow_flex_l	pro_sup_l	wrist_flex_l	wrist_dev_l
10	0.546846	1.04808	0.810854	0.666439	1.81732	0.904967	0.592961	0.148108	0.0576656	0.657358	-0.297136	0	0	0.809558	-0.452034	-0.243423	0.696488	-0.251954	0	0	-0.401709	-0.285908	-0.180228	0.483875	-0.212514	-0.040526	2.18465	1.5708	0	0	1.5708	-0.544681	1.5708	0.332695	0.733893	0	0
10.01	0.540126	1.01488	0.807664	0.668312	1.81554	0.905134	0.615799	0.167604	0.0344784	0.639488	-0.303788	0	0	0.84482	-0.479121	-0.233616	0.688841	-0.247069	0	0	-0.37012	-0.257886	-0.235563	0.528894	-0.177269	0.0742359	2.12667	1.5708	0	0	1.5708	-0.620917	1.5708	0.299345	0.758597	0	0
10.02	0.546275	1.03212	0.811455	0.665471	1.81671	0.90534	0.596258	0.144229	0.0477858	0.655509	-0.307849	0	0	0.83252	-0.459962	-0.230774	0.700389	-0.24728	0	0	-0.389836	-0.26612	-0.256714	0.532472	-0.168345	0.0572065	2.11861	1.5708	0	0	1.5708	-0.656169	1.5708	0.359944	0.771496	0	0
10.03	0.562924	1.03988	0.796567	0.664375	1.81685	0.906352	0.580976	0.136936	0.0439778	0.661879	-0.309299	0	0	0.821963	-0.460653	-0.230292	0.70267	-0.24631	0	0	-0.403435	-0.264676	-0.279659	0.551624	-0.154971	0.0794919	2.09614	1.5708	0	0	1.5708	-0.695681	1.5708	0.385341	0.781077	0	0
10.04	0.553995	1.03204	0.804586	0.663251	1.81862	0.905704	0.582787	0.128854	0.038066	0.662746	-0.311373	0	0	0.829825	-0.45986	-0.226894	0.702385	-0.244934	0	0	-0.400577	-0.269644	-0.270126	0.533216	-0.165991	0.0594647	2.11329	1.5708	0	0	1.5708	-0.690668	1.5708	0.405986	0.79261	0	0
10.05	0.586115	1.04858	0.775276	0.662599	1.81682	0.907777	0.559875	0.124329	0.0392207	0.672932	-0.31237	0	0	0.811045	-0.462406	-0.226474	0.707792	-0.243008	0	0	-0.425936	-0.262727	-0.306024	0.584033	-0.149405	0.110375	2.07209	1.5708	0	0	1.5708	-0.742742	1.5708	0.414387	0.803492	0	0
10.06	0.586894	1.05568	0.77477	0.661602	1.81983	0.907734	0.545182	0.110322	0.0387622	0.677406	-0.31249	0	0	0.797913	-0.456441	-0.229515	0.707239	-0.2417	0	0	-0.441008	-0.281505	-0.275617	0.545865	-0.174234	0.0545474	2.11508	1.5708	0	0	1.5708	-0.711833	1.5708	0.445068	0.742061	0	0
10.07	0.574843	1.04175	0.78348	0.660823	1.81946	0.907508	0.548874	0.109179	0.0741401	0.673769	-0.309897	0	0	0.815919	-0.459273	-0.221484	0.705761	-0.238837	0	0	-0.434657	-0.274144	-0.272275	0.54357	-0.179737	0.0554617	2.12486	1.5708	0	0	1.5708	-0.713126	1.5708	0.444724	0.782058	0	0
10.08	0.59983	1.05515	0.759897	0.660553	1.81725	0.909593	0.52744	0.106555	0.0976273	0.677873	-0.307157	0	0	0.802242	-0.460575	-0.219803	0.709537	-0.236697	0	0	-0.45476	-0.272477	-0.305316	0.58021	-0.160944	0.096491	2.08878	1.5708	0	0	1.5708	-0.762948	1.5708	0.454915	0.808585	0	0
10.09	0.581289	1.04514	0.775849	0.660041	1.81872	0.909114	0.530936	0.100792	0.11014	0.67102	-0.306862	0	0	0.8143	-0.458667	-0.216528	0.706838	-0.235052	0	0	-0.449319	-0.281221	-0.290046	0.554918	-0.178143	0.070827	2.11368	1.5708	0	0	1.5708	-0.757751	1.5708	0.483442	0.831444	0	0
10.1	0.578417	1.04384	0.777441	0.659821	1.81818	0.909607	0.528365	0.0971248	0.123199	0.670343	-0.307686	0	0	0.818784	-0.458375	-0.213421	0.707521	-0.234227	0	0	-0.454134	-0.286909	-0.28946	0.550759	-0.181402	0.0640659	2.11963	1.5708	0	0	1.5708	-0.766729	1.5708	0.499165	0.847347	0	0
10.11	0.649376	1.07459	0.715902	0.659418	1.81257	0.915923	0.481447	0.100807	0.136044	0.663139	-0.31101	0	0	0.782955	-0.463365	-0.211935	0.710505	-0.235063	0	0	-0.544425	-0.275916	-0.40323	0.656778	-0.123861	0.160057	2.067	1.5708	0	0	1.39217	-0.955942	0.876745	0.677182	1.30796	0	0
10.12	0.668117	1.09049	0.697551	0.659297	1.81224	0.91806	0.456302	0.0924524	0.163017	0.661129	-0.308084	0	0	0.761007	-0.459037	-0.216087	0.70701	-0.238637	0	0	-0.595693	-0.306292	-0.38306	0.629189	-0.147449	0.0914452	2.12495	1.5708	0	0	1.43656	-0.942779	0.905881	0.73721	1.30896	0	0
10.13	0.598008	1.05056	0.758258	0.658812	1.81516	0.913551	0.50057	0.091645	0.168579	0.655234	-0.310973	0	0	0.816679	-0.461219	-0.205596	0.708863	-0.23132	0	0	-0.502941	-0.285989	-0.367825	0.61057	-0.150578	0.124167	2.09386	1.5708	0	0	1.31494	-0.921556	0.81887	0.682203	1.32434	0	0
10.14	0.59912	1.0514	0.755976	0.658051	1.81589	0.913713	0.493562	0.0874048	0.176356	0.654456	-0.310986	0	0	0.81503	-0.460716	-0.204415	0.7106	-0.229611	0	0	-0.497663	-0.282505	-0.375816	0.617847	-0.14465	0.140579	2.07748	1.5708	0	0	1.24944	-0.940438	0.760305	0.693414	1.33104	0	0
10.15	0.707969	1.10718	0.65909	0.655884	1.8144	0.921267	0.40709	0.0777233	0.188854	0.645796	-0.314309	0	0	0.728176	-0.454547	-0.217504	0.700149	-0.236628	0	0	-0.581268	-0.280259	-0.36465	0.651671	-0.13796	0.135065	2.06892	1.5708	0	0	1.28071	-0.731387	0.288844	0.421087	1.5708	0	0
10.16	0.601015	1.05447	0.75233	0.656552	1.81738	0.91458	0.478442	0.0798024	0.189483	0.651324	-0.316323	0	0	0.809009	-0.458028	-0.20338	0.710255	-0.230383	0	0	-0.507701	-0.28135	-0.354265	0.603835	-0.154788	0.118651	2.10392	1.5708	0	0	1.16008	-0.921896	0.646615	0.713013	1.38801	0	0
10.17	0.652972	1.08072	0.70456	0.655309	1.81706	0.917872	0.435848	0.0761526	0.196888	0.650937	-0.317521	0	0	0.768319	-0.458105	-0.210386	0.709172	-0.232381	0	0	-0.549676	-0.276687	-0.369327	0.632804	-0.139976	0.136538	2.08841	1.5708	0	0	1.10756	-0.9523	0.601956	0.734196	1.36998	0	0
10.18	0.615561	1.06573	0.737039	0.655249	1.81856	0.916363	0.454816	0.0732485	0.201394	0.651036	-0.322709	0	0	0.790744	-0.455502	-0.207303	0.70825	-0.232679	0	0	-0.526114	-0.290636	-0.327859	0.585417	-0.1685	0.0843725	2.12592	1.5708	0	0	1.10231	-0.899613	0.600905	0.725375	1.39139	0	0
10.19	0.615194	1.0702	0.737142	0.654784	1.81911	0.917042	0.44779	0.0685043	0.206499	0.65272	-0.327344	0	0	0.784684	-0.451713	-0.209262	0.70602	-0.234212	0	0	-0.522021	-0.283678	-0.315345	0.585162	-0.168355	0.0871906	2.12584	1.5708	0	0	0.989689	-0.76579	0.173925	0.672044	1.5708	0	0
10.2	0.625294	1.07686	0.727642	0.653983	1.81947	0.917756	0.436261	0.065089	0.209494	0.655914	-0.331462	0	0	0.774887	-0.449966	-0.210924	0.706433	-0.233458	0	0	-0.535736	-0.29085	-0.307959	0.577064	-0.175383	0.0690712	2.13665	1.5708	0	0	0.961118	-0.794374	0.231575	0.712358	1.5708	0	0
10.21	0.635322	1.08313	0.7186	0.653195	1.81985	0.918389	0.424962	0.0623135	0.211506	0.658971	-0.335732	0	0	0.765592	-0.448141	-0.21262	0.706681	-0.232775	0	0	-0.545669	-0.296573	-0.298514	0.568609	-0.182339	0.0519955	2.14417	1.5708	0	0	0.95148	-0.827198	0.333041	0.732499	1.56444	0	0
10.22	0.699142	1.11485	0.66188	0.652218	1.81879	0.921711	0.37948	0.0573257	0.21429	0.666114	-0.334042	0	0	0.718955	-0.444739	-0.220912	0.705908	-0.233829	0	0	-0.599313	-0.313624	-0.300093	0.576526	-0.185324	0.0296798	2.14363	1.5708	0	0	0.935654	-0.835568	0.321135	0.764939	1.55422	0	0
10.23	0.722907	1.12775	0.640937	0.651706	1.81877	0.92294	0.360271	0.0538537	0.215842	0.670579	-0.333428	0	0	0.700058	-0.441349	-0.22499	0.704892	-0.234158	0	0	-0.613448	-0.317279	-0.29185	0.57611	-0.18825	0.0202362	2.14285	1.5708	0	0	0.898813	-0.812382	0.261059	0.761439	1.5708	0	0
10.24	0.743153	1.13935	0.623394	0.651307	1.81864	0.923929	0.344324	0.0505715	0.216973	0.676619	-0.33204	0	0	0.684024	-0.437542	-0.228526	0.704334	-0.234488	0	0	-0.623464	-0.321254	-0.282442	0.574573	-0.191436	0.0102031	2.1406	1.5708	0	0	0.865599	-0.786682	0.207239	0.753774	1.5708	0	0
10.25	0.765824	1.15133	0.603994	0.650951	1.81838	0.924929	0.327903	0.0477995	0.217128	0.683691	-0.330088	0	0	0.66747	-0.4334	-0.231669	0.703723	-0.234852	0	0	-0.63297	-0.325889	-0.270971	0.571908	-0.195679	-0.00187084	2.13754	1.5708	0	0	0.839933	-0.758749	0.16291	0.741077	1.5708	0	0
10.26	0.787262	1.16224	0.585967	0.650616	1.81815	0.925804	0.312931	0.0452535	0.216451	0.690767	-0.328812	0	0	0.652415	-0.429108	-0.234373	0.702822	-0.23563	0	0	-0.640435	-0.331087	-0.255836	0.565699	-0.201907	-0.0182983	2.13639	1.5708	0	0	0.821512	-0.727595	0.126772	0.724578	1.5708	0	0
10.27	0.844758	1.1794	0.533958	0.649257	1.81741	0.928337	0.280607	0.044362	0.215975	0.690792	-0.333042	0	0	0.620581	-0.425627	-0.238428	0.698387	-0.238418	0	0	-0.673617	-0.322206	-0.263793	0.589398	-0.193729	-0.00572493	2.13079	1.5708	0	0	0.766819	-0.720449	0.0414187	0.743963	1.5708	0	0
10.28	0.850628	1.18435	0.530185	0.648908	1.81737	0.928475	0.275271	0.0433421	0.214465	0.697078	-0.335183	0	0	0.615238	-0.421964	-0.240621	0.697877	-0.238505	0	0	-0.669817	-0.323672	-0.252275	0.583835	-0.19844	-0.0130824	2.12654	1.5708	0	0	0.740157	-0.696484	0.00804412	0.731098	1.5708	0	0
10.29	0.82069	1.18379	0.560298	0.649694	1.81773	0.926946	0.287505	0.0407317	0.212286	0.711103	-0.332458	0	0	0.625939	-0.417072	-0.242538	0.700518	-0.236447	0	0	-0.638802	-0.343202	-0.203509	0.536545	-0.224301	-0.0676583	2.13389	1.5708	0	0	0.775202	-0.640808	0.0529032	0.664582	1.5708	0	0
10.3	0.828403	1.18972	0.555432	0.64951	1.81759	0.927145	0.281421	0.040278	0.20958	0.71833	-0.332379	0	0	0.619676	-0.412718	-0.243495	0.699948	-0.236209	0	0	-0.635015	-0.343932	-0.186445	0.527781	-0.230356	-0.0800327	2.1326	1.5708	0	0	0.761938	-0.619727	0.0459912	0.640553	1.5708	0	0
10.31	0.83695	1.19537	0.550273	0.649292	1.81746	0.927292	0.275348	0.0402105	0.205443	0.725684	-0.331677	0	0	0.61366	-0.408732	-0.244693	0.699732	-0.235918	0	0	-0.630571	-0.343757	-0.168695	0.518547	-0.236784	-0.0928928	2.13084	1.5708	0	0	0.752034	-0.599348	0.0460552	0.611487	1.5708	0	0
10.32	0.893483	1.20859	0.499495	0.647854	1.81657	0.92939	0.24813	0.0420471	0.20154	0.725856	-0.335121	0	0	0.587257	-0.405899	-0.247504	0.696237	-0.237329	0	0	-0.657854	-0.326471	-0.176734	0.546402	-0.229325	-0.0704202	2.12513	1.5708	0	0	0.707745	-0.60185	0.00210343	0.618564	1.5708	0	0
10.33	0.858712	1.20811	0.535659	0.648748	1.81687	0.927785	0.261878	0.0410215	0.196314	0.739803	-0.329763	0	0	0.599447	-0.400493	-0.249318	0.698157	-0.236894	0	0	-0.630368	-0.34265	-0.131383	0.499063	-0.250908	-0.126559	2.13838	1.5708	0	0	0.738883	-0.563206	0.0630908	0.559503	1.5708	0	0
10.34	0.86354	1.21386	0.534667	0.648578	1.81653	0.927941	0.257971	0.0411705	0.19126	0.746264	-0.328703	0	0	0.594754	-0.395327	-0.2512	0.696854	-0.237893	0	0	-0.631557	-0.340711	-0.116331	0.490914	-0.256135	-0.141425	2.14588	1.5708	0	0	0.72736	-0.550073	0.0679011	0.54322	1.5708	0	0
